<?xml version="1.0" encoding="UTF-8"?>
<svg xmlns="http://www.w3.org/2000/svg" xml:space="preserve" width="267px" height="280px" version="1.1" style="shape-rendering:geometricPrecision; text-rendering:geometricPrecision; image-rendering:optimizeQuality; fill-rule:evenodd; clip-rule:evenodd"
viewBox="0 0 125.338 131.089">
 <defs>
  <style type="text/css">
   <![CDATA[
    .str0 {stroke:#0069FF;stroke-width:1.328;stroke-linecap:round;stroke-linejoin:round;stroke-miterlimit:22.9256}
    .str6 {stroke:#FA0000;stroke-width:1.328;stroke-linecap:round;stroke-linejoin:round;stroke-miterlimit:22.9256}
    .str8 {stroke:white;stroke-width:0.886;stroke-linecap:round;stroke-linejoin:round;stroke-miterlimit:22.9256}
    .str7 {stroke:#FA0000;stroke-width:0.886;stroke-linecap:round;stroke-linejoin:round;stroke-miterlimit:22.9256}
    .str2 {stroke:white;stroke-width:0.443;stroke-linecap:round;stroke-linejoin:round;stroke-miterlimit:22.9256}
    .str5 {stroke:#19BB00;stroke-width:0.443;stroke-linecap:round;stroke-linejoin:round;stroke-miterlimit:22.9256}
    .str4 {stroke:#976E00;stroke-width:0.443;stroke-linecap:round;stroke-linejoin:round;stroke-miterlimit:22.9256}
    .str1 {stroke:#DC00FE;stroke-width:0.443;stroke-linecap:round;stroke-linejoin:round;stroke-miterlimit:22.9256}
    .str3 {stroke:white;stroke-width:0.354;stroke-linecap:round;stroke-linejoin:round;stroke-miterlimit:22.9256}
    .fil0 {fill:none}
    .fil4 {fill:white}
    .fil2 {fill:#19BB00}
    .fil1 {fill:#976E00}
    .fil3 {fill:#DC00FE}
    .fil5 {fill:#FA0000}
    .fil10 {fill:white;fill-rule:nonzero}
    .fil8 {fill:#19BB00;fill-rule:nonzero}
    .fil6 {fill:#976E00;fill-rule:nonzero}
    .fil9 {fill:#DC00FE;fill-rule:nonzero}
    .fil7 {fill:#FA0000;fill-rule:nonzero}
   ]]>
  </style>
 </defs>
 <g>
  <path class="fil0 str0" d="M0.664 36.335c8.078,-10.754 20.939,-17.711 35.426,-17.711 9.969,0 19.169,3.295 26.579,8.855 7.41,5.561 16.61,8.856 26.58,8.856 14.486,0 27.347,-6.956 35.425,-17.711"/>
  <line class="fil0 str1" x1="0.667" y1="62.901" x2="36.089" y2= "62.901" />
  <line class="fil0 str2" x1="36.089" y1="27.479" x2="62.669" y2= "27.479" />
  <line class="fil0 str3" x1="0.667" y1="18.624" x2="124.674" y2= "18.624" />
  <line class="fil0 str4" x1="0.667" y1="9.769" x2="124.645" y2= "9.769" />
  <line class="fil0 str5" x1="89.249" y1="36.335" x2="89.249" y2= "18.624" />
  <line class="fil0 str6" x1="36.089" y1="18.624" x2="36.089" y2= "62.901" />
  <line class="fil0 str3" x1="0.667" y1="5.341" x2="0.667" y2= "67.329" />
  <line class="fil0 str3" x1="62.669" y1="14.541" x2="62.669" y2= "32.035" />
  <line class="fil0 str3" x1="124.645" y1="5.341" x2="124.645" y2= "67.329" />
  <polygon class="fil1" points="4.209,9.769 5.98,7.997 0.667,9.769 5.98,11.54 "/>
  <polygon class="fil2" points="89.249,32.793 87.478,31.022 89.249,36.335 91.02,31.022 "/>
  <polygon class="fil1" points="121.103,9.769 119.332,7.997 124.645,9.769 119.332,11.54 "/>
  <polygon class="fil3" points="32.547,62.901 30.776,61.13 36.089,62.901 30.776,64.673 "/>
  <polygon class="fil4" points="59.127,27.479 57.356,25.708 62.669,27.479 57.356,29.251 "/>
  <polygon class="fil3" points="4.209,62.901 5.98,61.13 0.667,62.901 5.98,64.673 "/>
  <polygon class="fil4" points="39.631,27.479 41.402,25.708 36.089,27.479 41.402,29.251 "/>
  <polygon class="fil2" points="89.249,22.167 87.478,23.938 89.249,18.624 91.02,23.938 "/>
  <polygon class="fil5 str7" points="36.089,22.166 34.318,23.937 36.089,18.624 37.86,23.937 "/>
  <path class="fil6" d="M57.826 8.052l-2.12 -8.052 1.106 0 1.207 5.28c0.131,0.553 0.247,1.102 0.347,1.646 0.211,-0.859 0.335,-1.353 0.371,-1.485l1.522 -5.441 1.284 0 1.154 4.077c0.283,1.012 0.493,1.962 0.628,2.849 0.107,-0.508 0.244,-1.091 0.411,-1.749l1.257 -5.177 1.071 0 -2.205 8.052 -1.036 0 -1.689 -6.134c-0.142,-0.514 -0.229,-0.829 -0.261,-0.945 -0.091,0.367 -0.174,0.682 -0.245,0.943l-1.689 6.136 -1.113 0z"/>
  <path class="fil7" d="M39.634 53.644l0 -8.052 3.569 0c0.718,0 1.263,0.073 1.636,0.217 0.373,0.145 0.671,0.4 0.894,0.765 0.223,0.366 0.334,0.771 0.334,1.213 0,0.572 -0.186,1.053 -0.555,1.445 -0.369,0.392 -0.939,0.639 -1.711,0.746 0.283,0.135 0.497,0.27 0.643,0.401 0.311,0.285 0.605,0.643 0.881,1.072l1.392 2.193 -1.33 0 -1.065 -1.675c-0.309,-0.486 -0.566,-0.855 -0.767,-1.112 -0.202,-0.257 -0.382,-0.435 -0.542,-0.538 -0.157,-0.101 -0.32,-0.172 -0.485,-0.213 -0.12,-0.025 -0.317,-0.038 -0.592,-0.038l-1.234 0 0 3.576 -1.068 0zm1.068 -4.498l2.287 0c0.487,0 0.866,-0.051 1.14,-0.152 0.274,-0.099 0.481,-0.26 0.622,-0.484 0.142,-0.221 0.214,-0.461 0.214,-0.721 0,-0.381 -0.137,-0.696 -0.413,-0.941 -0.275,-0.246 -0.71,-0.368 -1.304,-0.368l-2.546 0 0 2.666z"/>
  <path class="fil8" d="M93.011 31.506l0 -8.053 0.989 0 0 2.898c0.459,-0.538 1.039,-0.806 1.74,-0.806 0.429,0 0.802,0.084 1.121,0.255 0.316,0.171 0.543,0.405 0.68,0.705 0.137,0.3 0.204,0.736 0.204,1.306l0 3.695 -0.989 0 0 -3.691c0,-0.493 -0.107,-0.853 -0.319,-1.078 -0.214,-0.225 -0.514,-0.337 -0.904,-0.337 -0.29,0 -0.564,0.075 -0.82,0.227 -0.257,0.151 -0.439,0.358 -0.55,0.618 -0.108,0.259 -0.163,0.617 -0.163,1.074l0 3.187 -0.989 0z"/>
  <path class="fil9" d="M19.824 59.112c-0.368,0.313 -0.722,0.533 -1.061,0.662 -0.339,0.129 -0.703,0.193 -1.093,0.193 -0.641,0 -1.134,-0.156 -1.479,-0.469 -0.345,-0.311 -0.517,-0.71 -0.517,-1.196 0,-0.284 0.065,-0.545 0.195,-0.781 0.131,-0.236 0.301,-0.424 0.511,-0.566 0.212,-0.143 0.448,-0.251 0.713,-0.324 0.195,-0.051 0.489,-0.1 0.881,-0.149 0.798,-0.093 1.389,-0.208 1.765,-0.339 0.004,-0.135 0.006,-0.221 0.006,-0.256 0,-0.402 -0.094,-0.685 -0.281,-0.85 -0.253,-0.223 -0.63,-0.333 -1.129,-0.333 -0.466,0 -0.811,0.082 -1.032,0.245 -0.223,0.163 -0.387,0.452 -0.493,0.868l-0.968 -0.135c0.089,-0.414 0.233,-0.75 0.435,-1.005 0.203,-0.254 0.495,-0.449 0.878,-0.588 0.38,-0.137 0.824,-0.206 1.327,-0.206 0.498,0 0.905,0.058 1.218,0.176 0.311,0.118 0.542,0.264 0.688,0.442 0.146,0.178 0.249,0.403 0.309,0.675 0.032,0.169 0.049,0.472 0.049,0.909l0 1.312c0,0.917 0.02,1.496 0.062,1.742 0.039,0.245 0.122,0.479 0.242,0.704l-1.035 0c-0.1,-0.208 -0.163,-0.451 -0.191,-0.731zm-0.079 -2.193c-0.36,0.146 -0.9,0.27 -1.62,0.371 -0.408,0.059 -0.697,0.124 -0.865,0.197 -0.169,0.073 -0.299,0.18 -0.39,0.319 -0.092,0.14 -0.139,0.296 -0.139,0.468 0,0.261 0.099,0.48 0.3,0.655 0.2,0.174 0.493,0.262 0.877,0.262 0.381,0 0.72,-0.082 1.018,-0.249 0.296,-0.165 0.515,-0.392 0.654,-0.679 0.107,-0.223 0.159,-0.551 0.159,-0.984l0.006 -0.36z"/>
  <path class="fil10" d="M47.902 36.982l-0.922 0 0 -8.052 0.99 0 0 2.873c0.418,-0.521 0.95,-0.781 1.598,-0.781 0.358,0 0.7,0.071 1.02,0.215 0.32,0.145 0.583,0.349 0.791,0.609 0.206,0.263 0.369,0.578 0.486,0.947 0.117,0.367 0.176,0.763 0.176,1.183 0,0.997 -0.248,1.769 -0.741,2.313 -0.495,0.545 -1.087,0.817 -1.778,0.817 -0.689,0 -1.228,-0.287 -1.62,-0.858l0 0.734zm-0.011 -2.961c0,0.697 0.095,1.201 0.285,1.512 0.311,0.508 0.731,0.763 1.261,0.763 0.433,0 0.806,-0.187 1.119,-0.562 0.315,-0.375 0.473,-0.933 0.473,-1.676 0,-0.761 -0.15,-1.321 -0.452,-1.683 -0.302,-0.362 -0.668,-0.544 -1.095,-0.544 -0.433,0 -0.806,0.188 -1.119,0.563 -0.315,0.375 -0.472,0.916 -0.472,1.627z"/>
  <path class="fil9" d="M4.975 88.651c-0.367,0.313 -0.722,0.532 -1.061,0.661 -0.339,0.13 -0.703,0.194 -1.093,0.194 -0.641,0 -1.134,-0.156 -1.479,-0.469 -0.344,-0.311 -0.517,-0.71 -0.517,-1.196 0,-0.285 0.066,-0.545 0.195,-0.782 0.131,-0.236 0.302,-0.423 0.512,-0.566 0.212,-0.142 0.448,-0.251 0.712,-0.324 0.195,-0.051 0.489,-0.099 0.881,-0.148 0.799,-0.094 1.389,-0.208 1.766,-0.339 0.003,-0.135 0.005,-0.221 0.005,-0.257 0,-0.401 -0.093,-0.684 -0.281,-0.849 -0.253,-0.223 -0.629,-0.334 -1.128,-0.334 -0.467,0 -0.812,0.083 -1.033,0.246 -0.223,0.163 -0.386,0.451 -0.493,0.868l-0.967 -0.135c0.088,-0.415 0.232,-0.75 0.435,-1.005 0.202,-0.255 0.495,-0.45 0.877,-0.589 0.38,-0.136 0.825,-0.206 1.327,-0.206 0.499,0 0.905,0.058 1.218,0.176 0.312,0.119 0.542,0.265 0.688,0.443 0.147,0.178 0.25,0.403 0.31,0.675 0.031,0.168 0.048,0.472 0.048,0.909l0 1.312c0,0.916 0.021,1.496 0.062,1.741 0.04,0.246 0.122,0.48 0.242,0.705l-1.035 0c-0.099,-0.208 -0.163,-0.452 -0.191,-0.731zm-0.079 -2.193c-0.36,0.146 -0.899,0.27 -1.619,0.371 -0.409,0.058 -0.697,0.124 -0.866,0.197 -0.169,0.073 -0.298,0.18 -0.39,0.318 -0.092,0.141 -0.139,0.297 -0.139,0.469 0,0.261 0.1,0.48 0.3,0.654 0.201,0.175 0.493,0.263 0.877,0.263 0.381,0 0.72,-0.083 1.018,-0.25 0.296,-0.165 0.516,-0.392 0.654,-0.678 0.107,-0.223 0.16,-0.551 0.16,-0.984l0.005 -0.36z"/>
  <path class="fil10" d="M15.322 85.533l-5.308 0 0 -0.923 5.308 0 0 0.923zm0 2.44l-5.308 0 0 -0.922 5.308 0 0 0.922z"/>
  <path class="fil6" d="M21.443 89.382l-1.764 -5.837 1.035 0 0.931 3.368 0.33 1.254c0.013,-0.062 0.115,-0.463 0.302,-1.203l0.924 -3.419 1.014 0 0.879 3.389 0.287 1.111 0.336 -1.126 1.008 -3.374 0.962 0 -1.832 5.837 -1.023 0 -0.926 -3.492 -0.234 -0.999 -1.181 4.491 -1.048 0z"/>
  <polygon class="fil10" points="29.682,86.964 29.682,85.974 32.741,85.974 32.741,86.964 "/>
  <path class="fil10" d="M44.902 85.408c0,-0.95 0.098,-1.719 0.293,-2.3 0.197,-0.583 0.487,-1.031 0.873,-1.344 0.384,-0.313 0.87,-0.468 1.455,-0.468 0.431,0 0.81,0.086 1.138,0.26 0.326,0.175 0.596,0.426 0.805,0.754 0.211,0.326 0.375,0.725 0.495,1.196 0.122,0.47 0.182,1.105 0.182,1.902 0,0.945 -0.097,1.71 -0.29,2.291 -0.193,0.583 -0.484,1.031 -0.87,1.346 -0.384,0.314 -0.872,0.472 -1.46,0.472 -0.774,0 -1.384,-0.276 -1.826,-0.829 -0.53,-0.674 -0.795,-1.767 -0.795,-3.28zm1.013 0.004c0,1.325 0.153,2.206 0.462,2.641 0.31,0.437 0.692,0.654 1.146,0.654 0.453,0 0.836,-0.219 1.145,-0.656 0.309,-0.439 0.463,-1.318 0.463,-2.639 0,-1.325 -0.154,-2.206 -0.463,-2.641 -0.307,-0.437 -0.694,-0.654 -1.156,-0.654 -0.454,0 -0.818,0.193 -1.09,0.577 -0.339,0.489 -0.507,1.396 -0.507,2.718z"/>
  <path class="fil10" d="M51.114 89.382l0 -1.125 1.125 0 0 1.125c0,0.414 -0.073,0.75 -0.221,1.005 -0.147,0.255 -0.381,0.453 -0.701,0.592l-0.27 -0.427c0.21,-0.092 0.363,-0.227 0.461,-0.403 0.099,-0.179 0.155,-0.433 0.167,-0.767l-0.561 0z"/>
  <path class="fil10" d="M53.866 87.268l1.035 -0.079c0.077,0.504 0.255,0.883 0.532,1.138 0.278,0.253 0.617,0.38 1.016,0.38 0.482,0 0.885,-0.18 1.213,-0.538 0.326,-0.36 0.489,-0.836 0.489,-1.428 0,-0.564 -0.155,-1.009 -0.468,-1.335 -0.314,-0.326 -0.728,-0.489 -1.243,-0.489 -0.321,0 -0.608,0.073 -0.862,0.219 -0.253,0.147 -0.452,0.336 -0.598,0.568l-0.934 -0.135 0.776 -4.138 3.993 0 0 0.944 -3.204 0 -0.429 2.173c0.482,-0.339 0.988,-0.508 1.516,-0.508 0.702,0 1.294,0.243 1.776,0.731 0.481,0.487 0.723,1.113 0.723,1.878 0,0.729 -0.212,1.359 -0.635,1.889 -0.516,0.653 -1.221,0.979 -2.113,0.979 -0.731,0 -1.327,-0.206 -1.79,-0.617 -0.463,-0.41 -0.727,-0.954 -0.793,-1.632z"/>
  <path class="fil10" d="M61.197 85.459l0.251 -0.776c0.581,0.205 1.001,0.381 1.265,0.531 -0.069,-0.66 -0.107,-1.115 -0.11,-1.363l0.798 0c-0.011,0.362 -0.052,0.814 -0.127,1.357 0.376,-0.189 0.808,-0.365 1.293,-0.525l0.251 0.776c-0.463,0.154 -0.916,0.257 -1.363,0.308 0.224,0.193 0.537,0.54 0.941,1.036l-0.656 0.467c-0.211,-0.289 -0.463,-0.682 -0.751,-1.179 -0.272,0.515 -0.51,0.909 -0.714,1.179l-0.645 -0.467c0.422,-0.523 0.725,-0.867 0.907,-1.036 -0.47,-0.092 -0.917,-0.195 -1.34,-0.308z"/>
  <path class="fil6" d="M68.476 89.382l-1.764 -5.837 1.035 0 0.931 3.368 0.33 1.254c0.013,-0.062 0.115,-0.463 0.302,-1.203l0.924 -3.419 1.014 0 0.879 3.389 0.287 1.111 0.336 -1.126 1.008 -3.374 0.962 0 -1.832 5.837 -1.023 0 -0.926 -3.492 -0.234 -0.999 -1.181 4.491 -1.048 0z"/>
  <polygon class="fil10" points="83.617,88.077 83.617,85.873 81.424,85.873 81.424,84.951 83.617,84.951 83.617,82.758 84.55,82.758 84.55,84.951 86.743,84.951 86.743,85.873 84.55,85.873 84.55,88.077 "/>
  <path class="fil10" d="M89.762 85.408c0,-0.95 0.097,-1.719 0.292,-2.3 0.197,-0.583 0.488,-1.031 0.874,-1.344 0.384,-0.313 0.87,-0.468 1.455,-0.468 0.431,0 0.809,0.086 1.137,0.26 0.326,0.175 0.596,0.426 0.806,0.754 0.21,0.326 0.375,0.725 0.495,1.196 0.122,0.47 0.182,1.105 0.182,1.902 0,0.945 -0.098,1.71 -0.291,2.291 -0.193,0.583 -0.483,1.031 -0.869,1.346 -0.385,0.314 -0.872,0.472 -1.46,0.472 -0.775,0 -1.384,-0.276 -1.826,-0.829 -0.531,-0.674 -0.795,-1.767 -0.795,-3.28zm1.012 0.004c0,1.325 0.154,2.206 0.463,2.641 0.309,0.437 0.692,0.654 1.146,0.654 0.453,0 0.835,-0.219 1.145,-0.656 0.309,-0.439 0.463,-1.318 0.463,-2.639 0,-1.325 -0.154,-2.206 -0.463,-2.641 -0.308,-0.437 -0.694,-0.654 -1.157,-0.654 -0.453,0 -0.817,0.193 -1.089,0.577 -0.339,0.489 -0.508,1.396 -0.508,2.718z"/>
  <path class="fil10" d="M95.974 89.382l0 -1.125 1.125 0 0 1.125c0,0.414 -0.074,0.75 -0.222,1.005 -0.146,0.255 -0.38,0.453 -0.701,0.592l-0.27 -0.427c0.21,-0.092 0.364,-0.227 0.461,-0.403 0.1,-0.179 0.156,-0.433 0.167,-0.767l-0.56 0z"/>
  <path class="fil10" d="M98.726 87.268l1.035 -0.079c0.076,0.504 0.254,0.883 0.532,1.138 0.277,0.253 0.617,0.38 1.016,0.38 0.482,0 0.885,-0.18 1.213,-0.538 0.326,-0.36 0.489,-0.836 0.489,-1.428 0,-0.564 -0.156,-1.009 -0.469,-1.335 -0.313,-0.326 -0.727,-0.489 -1.243,-0.489 -0.32,0 -0.607,0.073 -0.862,0.219 -0.253,0.147 -0.452,0.336 -0.598,0.568l-0.933 -0.135 0.776 -4.138 3.992 0 0 0.944 -3.203 0 -0.429 2.173c0.481,-0.339 0.988,-0.508 1.516,-0.508 0.701,0 1.293,0.243 1.775,0.731 0.482,0.487 0.724,1.113 0.724,1.878 0,0.729 -0.212,1.359 -0.636,1.889 -0.515,0.653 -1.22,0.979 -2.112,0.979 -0.731,0 -1.327,-0.206 -1.79,-0.617 -0.463,-0.41 -0.728,-0.954 -0.793,-1.632z"/>
  <path class="fil10" d="M106.057 85.459l0.251 -0.776c0.581,0.205 1.001,0.381 1.265,0.531 -0.069,-0.66 -0.107,-1.115 -0.111,-1.363l0.799 0c-0.011,0.362 -0.053,0.814 -0.128,1.357 0.377,-0.189 0.808,-0.365 1.294,-0.525l0.251 0.776c-0.463,0.154 -0.917,0.257 -1.363,0.308 0.223,0.193 0.536,0.54 0.941,1.036l-0.656 0.467c-0.212,-0.289 -0.463,-0.682 -0.752,-1.179 -0.271,0.515 -0.509,0.909 -0.714,1.179l-0.645 -0.467c0.422,-0.523 0.726,-0.867 0.908,-1.036 -0.471,-0.092 -0.917,-0.195 -1.34,-0.308z"/>
  <path class="fil8" d="M112.286 89.382l0 -8.053 0.99 0 0 2.898c0.459,-0.538 1.038,-0.806 1.739,-0.806 0.429,0 0.802,0.085 1.121,0.255 0.317,0.171 0.544,0.405 0.68,0.705 0.137,0.3 0.205,0.737 0.205,1.306l0 3.695 -0.99 0 0 -3.691c0,-0.493 -0.107,-0.853 -0.319,-1.078 -0.213,-0.225 -0.513,-0.337 -0.903,-0.337 -0.291,0 -0.564,0.075 -0.821,0.227 -0.257,0.152 -0.439,0.358 -0.549,0.618 -0.109,0.259 -0.163,0.617 -0.163,1.074l0 3.187 -0.99 0z"/>
  <polyline class="fil0 str8" points="36.09,85.56 38.272,85.56 40.454,91.239 44.818,78.11 123.882,78.11 123.882,81.393 "/>
  <path class="fil10" d="M79.49 84.449l0 0.63 -3.554 0c-0.005,-0.159 0.021,-0.311 0.077,-0.459 0.092,-0.241 0.238,-0.48 0.439,-0.713 0.201,-0.234 0.489,-0.504 0.862,-0.81 0.581,-0.479 0.976,-0.857 1.182,-1.137 0.208,-0.28 0.312,-0.545 0.312,-0.795 0,-0.261 -0.094,-0.481 -0.282,-0.661 -0.187,-0.179 -0.432,-0.269 -0.733,-0.269 -0.319,0 -0.574,0.095 -0.765,0.285 -0.191,0.189 -0.287,0.451 -0.29,0.788l-0.675 -0.068c0.047,-0.505 0.222,-0.89 0.524,-1.155 0.304,-0.265 0.71,-0.397 1.221,-0.397 0.515,0 0.923,0.143 1.223,0.429 0.302,0.286 0.451,0.641 0.451,1.063 0,0.215 -0.043,0.426 -0.132,0.634 -0.088,0.208 -0.234,0.427 -0.437,0.657 -0.205,0.229 -0.544,0.545 -1.016,0.945 -0.397,0.332 -0.651,0.557 -0.764,0.676 -0.112,0.118 -0.205,0.237 -0.279,0.357l2.636 0z"/>
  <path class="fil10" d="M121.996 84.449l0 0.63 -3.554 0c-0.005,-0.159 0.022,-0.311 0.078,-0.459 0.091,-0.241 0.237,-0.48 0.439,-0.713 0.201,-0.234 0.488,-0.504 0.862,-0.81 0.581,-0.479 0.976,-0.857 1.182,-1.137 0.207,-0.28 0.311,-0.545 0.311,-0.795 0,-0.261 -0.094,-0.481 -0.281,-0.661 -0.188,-0.179 -0.432,-0.269 -0.734,-0.269 -0.318,0 -0.573,0.095 -0.764,0.285 -0.192,0.189 -0.288,0.451 -0.29,0.788l-0.675 -0.068c0.046,-0.505 0.221,-0.89 0.524,-1.155 0.303,-0.265 0.709,-0.397 1.22,-0.397 0.515,0 0.924,0.143 1.224,0.429 0.301,0.286 0.451,0.641 0.451,1.063 0,0.215 -0.044,0.426 -0.133,0.634 -0.087,0.208 -0.233,0.427 -0.437,0.657 -0.205,0.229 -0.544,0.545 -1.016,0.945 -0.396,0.332 -0.651,0.557 -0.763,0.676 -0.113,0.118 -0.205,0.237 -0.279,0.357l2.635 0z"/>
  <path class="fil10" d="M2.321 107.179l-0.922 0 0 -8.053 0.989 0 0 2.874c0.418,-0.521 0.951,-0.782 1.599,-0.782 0.358,0 0.699,0.072 1.02,0.216 0.32,0.144 0.583,0.349 0.791,0.609 0.206,0.262 0.369,0.577 0.485,0.947 0.118,0.367 0.177,0.763 0.177,1.182 0,0.998 -0.248,1.77 -0.741,2.313 -0.495,0.546 -1.087,0.818 -1.779,0.818 -0.688,0 -1.228,-0.287 -1.619,-0.859l0 0.735zm-0.011 -2.962c0,0.698 0.095,1.202 0.284,1.513 0.312,0.508 0.731,0.763 1.262,0.763 0.433,0 0.806,-0.188 1.119,-0.562 0.315,-0.375 0.472,-0.934 0.472,-1.676 0,-0.761 -0.15,-1.322 -0.451,-1.683 -0.302,-0.362 -0.668,-0.544 -1.095,-0.544 -0.433,0 -0.806,0.187 -1.119,0.562 -0.315,0.375 -0.472,0.917 -0.472,1.627z"/>
  <path class="fil10" d="M15.517 102.444l-5.308 0 0 -0.922 5.308 0 0 0.922zm0 2.441l-5.308 0 0 -0.923 5.308 0 0 0.923z"/>
  <path class="fil10" d="M19.276 103.205c0,-0.95 0.098,-1.719 0.293,-2.3 0.196,-0.583 0.487,-1.031 0.873,-1.344 0.384,-0.313 0.87,-0.468 1.455,-0.468 0.431,0 0.809,0.086 1.137,0.26 0.326,0.175 0.596,0.426 0.806,0.754 0.21,0.326 0.375,0.725 0.495,1.196 0.122,0.47 0.182,1.106 0.182,1.902 0,0.945 -0.097,1.71 -0.29,2.291 -0.194,0.583 -0.484,1.031 -0.87,1.346 -0.385,0.314 -0.872,0.472 -1.46,0.472 -0.775,0 -1.384,-0.276 -1.826,-0.829 -0.531,-0.674 -0.795,-1.767 -0.795,-3.28zm1.012 0.004c0,1.325 0.154,2.206 0.463,2.641 0.309,0.437 0.692,0.654 1.146,0.654 0.453,0 0.836,-0.219 1.145,-0.656 0.309,-0.439 0.463,-1.318 0.463,-2.639 0,-1.325 -0.154,-2.206 -0.463,-2.641 -0.308,-0.437 -0.694,-0.654 -1.157,-0.654 -0.453,0 -0.817,0.193 -1.089,0.577 -0.339,0.489 -0.508,1.396 -0.508,2.718z"/>
  <path class="fil10" d="M26.06 107.179l0 -1.125 1.124 0 0 1.125c0,0.414 -0.073,0.75 -0.221,1.005 -0.146,0.255 -0.38,0.453 -0.701,0.592l-0.27 -0.427c0.21,-0.092 0.364,-0.227 0.461,-0.403 0.1,-0.178 0.156,-0.433 0.167,-0.767l-0.56 0z"/>
  <path class="fil10" d="M28.656 105.065l1.034 -0.079c0.077,0.504 0.255,0.883 0.533,1.138 0.277,0.253 0.616,0.38 1.016,0.38 0.481,0 0.884,-0.18 1.212,-0.538 0.327,-0.36 0.49,-0.836 0.49,-1.428 0,-0.564 -0.156,-1.009 -0.469,-1.335 -0.313,-0.326 -0.727,-0.489 -1.243,-0.489 -0.32,0 -0.607,0.073 -0.862,0.219 -0.253,0.147 -0.452,0.336 -0.598,0.568l-0.933 -0.135 0.776 -4.138 3.992 0 0 0.944 -3.203 0 -0.429 2.173c0.481,-0.339 0.987,-0.508 1.516,-0.508 0.701,0 1.293,0.244 1.775,0.731 0.482,0.487 0.724,1.113 0.724,1.878 0,0.729 -0.212,1.359 -0.636,1.889 -0.515,0.653 -1.22,0.979 -2.112,0.979 -0.731,0 -1.327,-0.206 -1.79,-0.617 -0.463,-0.41 -0.728,-0.954 -0.793,-1.632z"/>
  <path class="fil10" d="M35.673 103.256l0.251 -0.776c0.581,0.205 1.001,0.381 1.265,0.531 -0.069,-0.66 -0.107,-1.115 -0.111,-1.363l0.799 0c-0.011,0.362 -0.053,0.814 -0.128,1.357 0.377,-0.189 0.808,-0.365 1.294,-0.525l0.251 0.776c-0.463,0.154 -0.917,0.257 -1.363,0.308 0.223,0.193 0.536,0.54 0.941,1.036l-0.656 0.467c-0.212,-0.289 -0.463,-0.682 -0.752,-1.179 -0.271,0.515 -0.509,0.909 -0.714,1.179l-0.645 -0.467c0.422,-0.523 0.726,-0.867 0.908,-1.036 -0.471,-0.092 -0.917,-0.195 -1.34,-0.308z"/>
  <path class="fil6" d="M42.378 107.179l-1.764 -5.837 1.035 0 0.932 3.368 0.329 1.254c0.013,-0.061 0.115,-0.463 0.302,-1.203l0.924 -3.419 1.014 0 0.879 3.389 0.287 1.112 0.336 -1.127 1.008 -3.374 0.962 0 -1.831 5.837 -1.024 0 -0.926 -3.492 -0.234 -0.999 -1.181 4.491 -1.048 0z"/>
  <polygon class="fil10" points="49.942,104.761 49.942,103.771 53.001,103.771 53.001,104.761 "/>
  <path class="fil9" d="M58.779 106.448c-0.367,0.313 -0.721,0.532 -1.061,0.662 -0.339,0.129 -0.703,0.193 -1.093,0.193 -0.641,0 -1.134,-0.156 -1.478,-0.469 -0.345,-0.311 -0.518,-0.71 -0.518,-1.196 0,-0.285 0.066,-0.545 0.195,-0.781 0.131,-0.237 0.302,-0.424 0.512,-0.567 0.212,-0.142 0.448,-0.251 0.712,-0.324 0.195,-0.05 0.489,-0.099 0.881,-0.148 0.799,-0.094 1.389,-0.208 1.766,-0.339 0.003,-0.135 0.005,-0.221 0.005,-0.257 0,-0.401 -0.093,-0.684 -0.281,-0.849 -0.253,-0.223 -0.629,-0.334 -1.128,-0.334 -0.467,0 -0.812,0.083 -1.033,0.246 -0.223,0.163 -0.386,0.452 -0.493,0.868l-0.967 -0.135c0.088,-0.414 0.232,-0.75 0.435,-1.005 0.202,-0.255 0.495,-0.45 0.877,-0.588 0.38,-0.137 0.825,-0.207 1.327,-0.207 0.499,0 0.906,0.058 1.218,0.177 0.312,0.118 0.542,0.264 0.688,0.442 0.147,0.178 0.25,0.403 0.31,0.675 0.031,0.168 0.048,0.472 0.048,0.909l0 1.312c0,0.916 0.021,1.496 0.062,1.741 0.04,0.246 0.122,0.48 0.242,0.705l-1.035 0c-0.099,-0.208 -0.163,-0.452 -0.191,-0.731zm-0.079 -2.193c-0.359,0.146 -0.899,0.27 -1.619,0.371 -0.409,0.058 -0.697,0.124 -0.866,0.197 -0.169,0.073 -0.298,0.18 -0.39,0.319 -0.092,0.14 -0.139,0.296 -0.139,0.468 0,0.261 0.1,0.48 0.3,0.654 0.201,0.175 0.493,0.263 0.877,0.263 0.381,0 0.72,-0.083 1.018,-0.25 0.296,-0.165 0.516,-0.391 0.655,-0.678 0.106,-0.223 0.159,-0.551 0.159,-0.984l0.005 -0.36z"/>
  <path class="fil7" d="M1.556 124.89l0 -8.053 3.569 0c0.718,0 1.263,0.074 1.636,0.218 0.373,0.144 0.671,0.399 0.894,0.765 0.223,0.365 0.334,0.77 0.334,1.212 0,0.572 -0.186,1.054 -0.555,1.446 -0.369,0.391 -0.939,0.639 -1.711,0.746 0.283,0.135 0.497,0.27 0.643,0.401 0.311,0.285 0.605,0.643 0.881,1.072l1.392 2.193 -1.33 0 -1.065 -1.676c-0.309,-0.485 -0.566,-0.855 -0.767,-1.111 -0.202,-0.257 -0.382,-0.435 -0.541,-0.538 -0.158,-0.101 -0.321,-0.173 -0.486,-0.214 -0.12,-0.024 -0.317,-0.037 -0.592,-0.037l-1.234 0 0 3.576 -1.068 0zm1.068 -4.499l2.287 0c0.487,0 0.866,-0.05 1.14,-0.151 0.274,-0.1 0.482,-0.261 0.622,-0.484 0.143,-0.221 0.214,-0.461 0.214,-0.722 0,-0.38 -0.137,-0.695 -0.413,-0.941 -0.275,-0.245 -0.71,-0.367 -1.304,-0.367l-2.546 0 0 2.665z"/>
  <path class="fil10" d="M15.613 120.155l-5.308 0 0 -0.922 5.308 0 0 0.922zm0 2.441l-5.308 0 0 -0.923 5.308 0 0 0.923z"/>
  <path class="fil10" d="M22.029 117.44l0.989 -0.135c0.115,0.562 0.306,0.967 0.578,1.215 0.271,0.247 0.605,0.371 1.001,0.371 0.468,0 0.864,-0.162 1.182,-0.484 0.319,-0.322 0.478,-0.722 0.478,-1.198 0,-0.453 -0.148,-0.828 -0.446,-1.124 -0.296,-0.295 -0.673,-0.443 -1.132,-0.443 -0.187,0 -0.42,0.038 -0.699,0.111l0.11 -0.866c0.066,0.007 0.12,0.011 0.16,0.011 0.423,0 0.802,-0.11 1.141,-0.33 0.338,-0.219 0.506,-0.556 0.506,-1.012 0,-0.362 -0.123,-0.662 -0.369,-0.9 -0.245,-0.238 -0.562,-0.356 -0.95,-0.356 -0.386,0 -0.707,0.122 -0.964,0.366 -0.256,0.243 -0.421,0.609 -0.494,1.096l-0.99 -0.18c0.122,-0.663 0.395,-1.179 0.825,-1.544 0.427,-0.366 0.961,-0.548 1.598,-0.548 0.439,0 0.844,0.094 1.213,0.284 0.371,0.187 0.654,0.444 0.849,0.768 0.197,0.326 0.295,0.671 0.295,1.036 0,0.347 -0.094,0.662 -0.28,0.947 -0.187,0.285 -0.465,0.512 -0.83,0.681 0.476,0.108 0.845,0.337 1.11,0.684 0.262,0.345 0.393,0.779 0.393,1.299 0,0.703 -0.257,1.301 -0.768,1.79 -0.514,0.489 -1.162,0.733 -1.946,0.733 -0.707,0 -1.293,-0.212 -1.76,-0.634 -0.469,-0.422 -0.735,-0.967 -0.8,-1.638z"/>
  <path class="fil10" d="M25.713 131.089l0 -1.923 -3.498 0 0 -0.911 3.678 -5.219 0.81 0 0 5.219 1.091 0 0 0.911 -1.091 0 0 1.923 -0.99 0zm0 -2.834l0 -3.624 -2.525 3.624 2.525 0z"/>
  <path class="fil10" d="M31.341 120.967l0.251 -0.776c0.581,0.205 1.001,0.381 1.265,0.531 -0.069,-0.66 -0.107,-1.115 -0.111,-1.363l0.799 0c-0.011,0.362 -0.053,0.814 -0.128,1.357 0.377,-0.189 0.808,-0.365 1.294,-0.525l0.251 0.776c-0.463,0.154 -0.917,0.257 -1.363,0.308 0.223,0.193 0.536,0.54 0.941,1.036l-0.656 0.467c-0.212,-0.289 -0.463,-0.682 -0.752,-1.179 -0.271,0.515 -0.509,0.909 -0.714,1.179l-0.644 -0.467c0.421,-0.523 0.725,-0.867 0.907,-1.036 -0.471,-0.092 -0.917,-0.195 -1.34,-0.308z"/>
  <path class="fil8" d="M36.111 124.89l0 -8.053 0.99 0 0 2.898c0.459,-0.538 1.038,-0.806 1.739,-0.806 0.429,0 0.802,0.085 1.121,0.255 0.317,0.171 0.544,0.405 0.68,0.705 0.137,0.3 0.205,0.737 0.205,1.306l0 3.695 -0.99 0 0 -3.691c0,-0.493 -0.107,-0.853 -0.319,-1.078 -0.213,-0.224 -0.513,-0.337 -0.903,-0.337 -0.291,0 -0.564,0.075 -0.821,0.227 -0.257,0.152 -0.439,0.358 -0.549,0.618 -0.109,0.259 -0.163,0.617 -0.163,1.074l0 3.187 -0.99 0z"/>
  <polygon class="fil10" points="45.332,123.585 45.332,121.381 43.139,121.381 43.139,120.459 45.332,120.459 45.332,118.266 46.266,118.266 46.266,120.459 48.459,120.459 48.459,121.381 46.266,121.381 46.266,123.585 "/>
  <path class="fil6" d="M53.526 119.577l-1.764 -5.837 1.035 0 0.931 3.368 0.33 1.254c0.013,-0.062 0.114,-0.463 0.302,-1.203l0.924 -3.419 1.014 0 0.879 3.389 0.287 1.111 0.335 -1.126 1.009 -3.374 0.961 0 -1.831 5.837 -1.023 0 -0.926 -3.492 -0.235 -0.999 -1.18 4.491 -1.048 0z"/>
  <path class="fil10" d="M60.204 116.54l0.252 -0.776c0.581,0.204 1,0.38 1.265,0.53 -0.07,-0.66 -0.107,-1.115 -0.111,-1.363l0.799 0c-0.012,0.362 -0.053,0.814 -0.128,1.357 0.377,-0.189 0.808,-0.365 1.294,-0.524l0.251 0.776c-0.463,0.153 -0.917,0.256 -1.363,0.307 0.223,0.193 0.536,0.54 0.941,1.037l-0.656 0.466c-0.212,-0.288 -0.463,-0.682 -0.752,-1.179 -0.271,0.516 -0.509,0.909 -0.714,1.179l-0.645 -0.466c0.422,-0.523 0.726,-0.868 0.908,-1.037 -0.471,-0.092 -0.917,-0.195 -1.341,-0.307z"/>
  <path class="fil10" d="M66.864 120.167c-0.543,-0.53 -1.005,-1.151 -1.381,-1.863 -0.377,-0.711 -0.564,-1.449 -0.564,-2.211 0,-0.672 0.14,-1.316 0.421,-1.931 0.33,-0.714 0.838,-1.426 1.524,-2.134l0.709 0c-0.443,0.587 -0.737,1.006 -0.879,1.258 -0.224,0.389 -0.4,0.795 -0.527,1.219 -0.158,0.528 -0.236,1.059 -0.236,1.593 0,1.358 0.547,2.714 1.642,4.069l-0.709 0z"/>
  <path class="fil9" d="M72.533 118.846c-0.368,0.313 -0.722,0.532 -1.062,0.661 -0.339,0.13 -0.702,0.193 -1.092,0.193 -0.641,0 -1.134,-0.155 -1.479,-0.468 -0.345,-0.311 -0.517,-0.711 -0.517,-1.196 0,-0.285 0.065,-0.546 0.195,-0.782 0.131,-0.236 0.301,-0.423 0.511,-0.566 0.212,-0.142 0.448,-0.251 0.713,-0.324 0.194,-0.051 0.489,-0.099 0.88,-0.148 0.799,-0.094 1.389,-0.208 1.766,-0.34 0.004,-0.134 0.006,-0.221 0.006,-0.256 0,-0.401 -0.094,-0.684 -0.281,-0.849 -0.253,-0.223 -0.63,-0.334 -1.129,-0.334 -0.467,0 -0.811,0.082 -1.033,0.246 -0.223,0.163 -0.386,0.451 -0.493,0.867l-0.967 -0.135c0.088,-0.414 0.233,-0.749 0.435,-1.004 0.203,-0.255 0.495,-0.45 0.877,-0.589 0.381,-0.137 0.825,-0.206 1.327,-0.206 0.499,0 0.906,0.058 1.219,0.176 0.311,0.118 0.542,0.265 0.688,0.443 0.146,0.178 0.249,0.403 0.309,0.674 0.032,0.169 0.049,0.473 0.049,0.909l0 1.313c0,0.916 0.02,1.495 0.062,1.741 0.039,0.245 0.121,0.48 0.241,0.705l-1.034 0c-0.1,-0.208 -0.163,-0.452 -0.191,-0.731zm-0.079 -2.193c-0.36,0.146 -0.9,0.27 -1.62,0.371 -0.408,0.058 -0.697,0.123 -0.866,0.197 -0.168,0.073 -0.298,0.18 -0.39,0.318 -0.091,0.141 -0.138,0.296 -0.138,0.469 0,0.26 0.099,0.48 0.3,0.654 0.2,0.174 0.493,0.262 0.877,0.262 0.38,0 0.72,-0.082 1.018,-0.249 0.296,-0.165 0.515,-0.392 0.654,-0.678 0.107,-0.223 0.159,-0.551 0.159,-0.985l0.006 -0.359z"/>
  <polygon class="fil10" points="75.467,117.159 75.467,116.169 78.526,116.169 78.526,117.159 "/>
  <path class="fil10" d="M81.402 119.577l-0.922 0 0 -8.053 0.99 0 0 2.874c0.418,-0.521 0.95,-0.782 1.598,-0.782 0.359,0 0.7,0.071 1.02,0.216 0.321,0.144 0.583,0.348 0.791,0.609 0.206,0.262 0.37,0.577 0.486,0.946 0.118,0.368 0.176,0.763 0.176,1.183 0,0.997 -0.247,1.77 -0.741,2.313 -0.494,0.546 -1.087,0.817 -1.778,0.817 -0.688,0 -1.228,-0.286 -1.62,-0.858l0 0.735zm-0.011 -2.962c0,0.697 0.096,1.202 0.285,1.513 0.311,0.508 0.731,0.763 1.261,0.763 0.433,0 0.806,-0.188 1.119,-0.563 0.315,-0.375 0.473,-0.933 0.473,-1.675 0,-0.761 -0.15,-1.322 -0.452,-1.684 -0.302,-0.361 -0.667,-0.543 -1.095,-0.543 -0.433,0 -0.806,0.187 -1.119,0.562 -0.315,0.375 -0.472,0.917 -0.472,1.627z"/>
  <path class="fil10" d="M87.399 120.167l-0.709 0c1.095,-1.355 1.642,-2.711 1.642,-4.069 0,-0.531 -0.079,-1.058 -0.236,-1.58 -0.124,-0.424 -0.298,-0.83 -0.521,-1.22 -0.143,-0.253 -0.439,-0.677 -0.885,-1.27l0.709 0c0.685,0.708 1.193,1.42 1.523,2.134 0.281,0.615 0.422,1.259 0.422,1.931 0,0.762 -0.189,1.5 -0.568,2.211 -0.377,0.712 -0.836,1.333 -1.377,1.863z"/>
  <path class="fil10" d="M66.651 130.144l0 0.945 -5.331 0c-0.008,-0.238 0.032,-0.467 0.116,-0.688 0.137,-0.362 0.356,-0.72 0.658,-1.07 0.302,-0.351 0.733,-0.756 1.293,-1.215 0.872,-0.718 1.464,-1.286 1.774,-1.706 0.311,-0.42 0.466,-0.817 0.466,-1.192 0,-0.392 -0.14,-0.722 -0.421,-0.991 -0.282,-0.268 -0.649,-0.403 -1.101,-0.403 -0.478,0 -0.86,0.142 -1.147,0.427 -0.287,0.283 -0.431,0.677 -0.435,1.181l-1.012 -0.101c0.07,-0.758 0.332,-1.335 0.785,-1.732 0.456,-0.398 1.065,-0.596 1.832,-0.596 0.772,0 1.385,0.213 1.835,0.643 0.452,0.429 0.677,0.961 0.677,1.595 0,0.322 -0.066,0.639 -0.199,0.95 -0.131,0.313 -0.351,0.641 -0.656,0.986 -0.308,0.343 -0.816,0.817 -1.524,1.417 -0.594,0.499 -0.977,0.836 -1.145,1.014 -0.169,0.178 -0.308,0.356 -0.418,0.536l3.953 0z"/>
  <path class="fil10" d="M67.598 127.166l0.251 -0.776c0.581,0.205 1.001,0.381 1.265,0.531 -0.069,-0.66 -0.107,-1.116 -0.111,-1.363l0.799 0c-0.011,0.362 -0.053,0.814 -0.128,1.357 0.377,-0.189 0.808,-0.365 1.294,-0.525l0.251 0.776c-0.463,0.154 -0.917,0.257 -1.363,0.308 0.223,0.193 0.536,0.539 0.941,1.036l-0.656 0.467c-0.212,-0.289 -0.463,-0.682 -0.752,-1.179 -0.271,0.515 -0.509,0.909 -0.714,1.179l-0.645 -0.467c0.422,-0.523 0.726,-0.868 0.908,-1.036 -0.471,-0.092 -0.917,-0.195 -1.34,-0.308z"/>
  <path class="fil8" d="M72.368 131.089l0 -8.053 0.99 0 0 2.898c0.459,-0.538 1.038,-0.806 1.739,-0.806 0.429,0 0.802,0.084 1.121,0.255 0.317,0.171 0.543,0.405 0.68,0.705 0.137,0.3 0.205,0.737 0.205,1.306l0 3.695 -0.99 0 0 -3.691c0,-0.493 -0.107,-0.853 -0.319,-1.078 -0.213,-0.225 -0.513,-0.337 -0.903,-0.337 -0.291,0 -0.564,0.075 -0.821,0.227 -0.257,0.152 -0.439,0.358 -0.549,0.618 -0.109,0.259 -0.163,0.617 -0.163,1.074l0 3.187 -0.99 0z"/>
  <line class="fil0 str8" x1="20.779" y1="121.274" x2="29.634" y2= "121.274" />
  <line class="fil0 str8" x1="50.898" y1="121.274" x2="91.354" y2= "121.274" />
 </g>
</svg>
